<svg width="19" height="19" viewBox="0 0 19 19" fill="none" xmlns="http://www.w3.org/2000/svg">
<path d="M9.87339 10.1184L7.85289 12.1301C7.77055 12.2118 7.7052 12.309 7.6606 12.416C7.616 12.5231 7.59304 12.6379 7.59304 12.7538C7.59304 12.8698 7.616 12.9846 7.6606 13.0917C7.7052 13.1987 7.77055 13.2959 7.85289 13.3776C7.93456 13.4599 8.03172 13.5253 8.13877 13.5699C8.24582 13.6145 8.36064 13.6374 8.47661 13.6374C8.59258 13.6374 8.7074 13.6145 8.81445 13.5699C8.9215 13.5253 9.01866 13.4599 9.10033 13.3776L12.6142 9.86366C12.6942 9.78011 12.7569 9.68159 12.7987 9.57376C12.8866 9.35988 12.8866 9.11999 12.7987 8.90612C12.7569 8.79828 12.6942 8.69977 12.6142 8.61622L9.10033 5.10231C9.01842 5.0204 8.92118 4.95543 8.81416 4.9111C8.70715 4.86677 8.59244 4.84396 8.47661 4.84396C8.36077 4.84396 8.24607 4.86677 8.13905 4.9111C8.03204 4.95543 7.9348 5.0204 7.85289 5.10231C7.77098 5.18422 7.70601 5.28146 7.66168 5.38847C7.61735 5.49549 7.59454 5.61019 7.59454 5.72603C7.59454 5.84186 7.61735 5.95657 7.66168 6.06358C7.70601 6.1706 7.77098 6.26784 7.85289 6.34975L9.87339 8.36146H1.44879C1.2158 8.36146 0.992359 8.45401 0.827613 8.61876C0.662866 8.78351 0.570313 9.00695 0.570312 9.23994C0.570313 9.47293 0.662866 9.69637 0.827613 9.86112C0.992359 10.0259 1.2158 10.1184 1.44879 10.1184H9.87339ZM9.35509 0.455166C7.71329 0.447836 6.1023 0.900741 4.70484 1.76251C3.30738 2.62428 2.17938 3.86042 1.44879 5.33071C1.34395 5.5404 1.32669 5.78315 1.40083 6.00556C1.47497 6.22797 1.63442 6.41181 1.8441 6.51666C2.05379 6.6215 2.29654 6.63875 2.51895 6.56462C2.74136 6.49048 2.92521 6.33103 3.03005 6.12134C3.58541 4.99981 4.4302 4.04692 5.47709 3.36116C6.52399 2.67539 7.73502 2.28162 8.98503 2.22055C10.235 2.15947 11.4787 2.4333 12.5875 3.01374C13.6962 3.59418 14.6299 4.46017 15.2919 5.52222C15.954 6.58427 16.3204 7.80384 16.3534 9.05492C16.3863 10.306 16.0846 11.5432 15.4794 12.6386C14.8742 13.734 13.9874 14.648 12.9108 15.286C11.8341 15.924 10.6066 16.2629 9.35509 16.2678C8.04517 16.2734 6.7602 15.9097 5.64764 15.2182C4.53508 14.5267 3.64002 13.5356 3.06519 12.3585C2.96034 12.1488 2.7765 11.9894 2.55409 11.9153C2.33168 11.8411 2.08893 11.8584 1.87924 11.9632C1.66956 12.0681 1.51011 12.2519 1.43597 12.4743C1.36183 12.6967 1.37908 12.9395 1.48393 13.1492C2.18041 14.5508 3.23871 15.7409 4.54935 16.5963C5.85999 17.4518 7.37539 17.9416 8.93879 18.015C10.5022 18.0885 12.0568 17.7429 13.4419 17.014C14.827 16.2852 15.9921 15.1995 16.8169 13.8694C17.6417 12.5392 18.0962 11.0128 18.1333 9.44814C18.1704 7.88345 17.7888 6.33727 17.0279 4.96951C16.2671 3.60176 15.1547 2.46211 13.8057 1.66844C12.4567 0.874766 10.9202 0.455901 9.35509 0.455166Z" fill="#F5F5F5"/>
</svg>
